<?xml version="1.0" encoding="iso-8859-1"?>
<!-- Generator: Adobe Illustrator 19.0.0, SVG Export Plug-In . SVG Version: 6.00 Build 0)  -->
<svg version="1.1" id="Capa_1" xmlns="http://www.w3.org/2000/svg" xmlns:xlink="http://www.w3.org/1999/xlink" x="0px" y="0px"
	 viewBox="0 0 191.146 191.146" style="enable-background:new 0 0 191.146 191.146;" xml:space="preserve">
<g>
	<g>
		<path d="M68.007,0H13.911C6.239,0,0,6.24,0,13.909V68.01c0,7.67,6.24,13.909,13.911,13.909h54.096
			c7.672,0,13.911-6.24,13.911-13.911v-54.1C81.918,6.24,75.679,0,68.007,0z M68.007,75.092H13.909
			c-3.907,0-7.084-3.176-7.084-7.083v-54.1c0-3.907,3.178-7.083,7.084-7.083h54.096c3.907,0,7.084,3.176,7.084,7.083v54.1h0.001
			C75.09,71.916,71.913,75.092,68.007,75.092z"/>
	</g>
</g>
<g>
	<g>
		<path d="M177.234,0h-54.096c-7.672,0-13.911,6.24-13.911,13.909V68.01c0,7.67,6.24,13.909,13.911,13.909h54.096
			c7.671,0,13.911-6.24,13.911-13.911v-54.1C191.145,6.24,184.905,0,177.234,0z M184.316,68.009c0,3.907-3.178,7.083-7.084,7.083
			h-54.096c-3.907,0-7.084-3.176-7.084-7.083v-54.1c0-3.907,3.178-7.083,7.084-7.083h54.096c3.907,0,7.084,3.176,7.084,7.083V68.009
			z"/>
	</g>
</g>
<g>
	<g>
		<path d="M68.007,109.227H13.911C6.241,109.227,0,115.467,0,123.136v54.101c0,7.67,6.24,13.909,13.911,13.909h54.096
			c7.672,0,13.911-6.24,13.911-13.911v-54.1C81.918,115.466,75.679,109.227,68.007,109.227z M68.007,184.319H13.909
			c-3.907,0-7.084-3.176-7.084-7.083v-54.1c0-3.907,3.178-7.083,7.084-7.083h54.096c3.907,0,7.084,3.176,7.084,7.083v54.1h0.001
			C75.09,181.143,71.913,184.319,68.007,184.319z"/>
	</g>
</g>
<g>
	<g>
		<path d="M177.234,109.227h-54.096c-7.672,0-13.911,6.24-13.911,13.909v54.101c0,7.67,6.24,13.909,13.911,13.909h54.096
			c7.671,0,13.911-6.24,13.911-13.911v-54.1C191.145,115.466,184.905,109.227,177.234,109.227z M184.316,177.236
			c0,3.907-3.178,7.083-7.084,7.083h-54.096c-3.907,0-7.084-3.176-7.084-7.083v-54.1c0-3.907,3.178-7.083,7.084-7.083h54.096
			c3.907,0,7.084,3.176,7.084,7.083V177.236z"/>
	</g>
</g>
<g>
</g>
<g>
</g>
<g>
</g>
<g>
</g>
<g>
</g>
<g>
</g>
<g>
</g>
<g>
</g>
<g>
</g>
<g>
</g>
<g>
</g>
<g>
</g>
<g>
</g>
<g>
</g>
<g>
</g>
</svg>
